<svg width="20" height="20" viewBox="0 0 20 20" fill="none" xmlns="http://www.w3.org/2000/svg">
<path d="M10 18.9583C5.05833 18.9583 1.04166 14.9417 1.04166 9.99999C1.04166 5.05832 5.05833 1.04166 10 1.04166C14.9417 1.04166 18.9583 5.05832 18.9583 9.99999C18.9583 14.9417 14.9417 18.9583 10 18.9583ZM10 2.29166C5.75 2.29166 2.29166 5.74999 2.29166 9.99999C2.29166 14.25 5.75 17.7083 10 17.7083C14.25 17.7083 17.7083 14.25 17.7083 9.99999C17.7083 5.74999 14.25 2.29166 10 2.29166Z" fill="#808080"/>
<path d="M13.0917 13.275C12.9833 13.275 12.875 13.25 12.775 13.1833L10.1917 11.6417C9.55 11.2583 9.075 10.4167 9.075 9.675V6.25833C9.075 5.91666 9.35833 5.63333 9.7 5.63333C10.0417 5.63333 10.325 5.91666 10.325 6.25833V9.675C10.325 9.975 10.575 10.4167 10.8333 10.5667L13.4167 12.1083C13.7167 12.2833 13.8083 12.6667 13.6333 12.9667C13.5083 13.1667 13.3 13.275 13.0917 13.275Z" fill="#808080"/>
</svg>
