<svg width="12" height="12" viewBox="0 0 12 12" fill="none" xmlns="http://www.w3.org/2000/svg">
<path d="M5.7 11.375H3.8C1.605 11.375 0.625 10.395 0.625 8.2V6.3C0.625 4.105 1.605 3.125 3.8 3.125H5.3C5.505 3.125 5.675 3.295 5.675 3.5C5.675 3.705 5.505 3.875 5.3 3.875H3.8C2.01 3.875 1.375 4.51 1.375 6.3V8.2C1.375 9.99 2.01 10.625 3.8 10.625H5.7C7.49 10.625 8.125 9.99 8.125 8.2V6.7C8.125 6.495 8.295 6.325 8.5 6.325C8.705 6.325 8.875 6.495 8.875 6.7V8.2C8.875 10.395 7.895 11.375 5.7 11.375Z" fill="white"/>
<path d="M8.5 7.07499H6.9C5.495 7.07499 4.925 6.50499 4.925 5.09999V3.49999C4.925 3.34999 5.015 3.20999 5.155 3.15499C5.295 3.09499 5.455 3.12999 5.565 3.23499L8.765 6.43499C8.87 6.53999 8.905 6.70499 8.845 6.84499C8.79 6.98499 8.65 7.07499 8.5 7.07499ZM5.675 4.40499V5.09999C5.675 6.09499 5.905 6.32499 6.9 6.32499H7.595L5.675 4.40499Z" fill="white"/>
<path d="M7.8 1.375H5.8C5.595 1.375 5.425 1.205 5.425 1C5.425 0.795 5.595 0.625 5.8 0.625H7.8C8.005 0.625 8.175 0.795 8.175 1C8.175 1.205 8.005 1.375 7.8 1.375Z" fill="white"/>
<path d="M3.5 2.875C3.295 2.875 3.125 2.705 3.125 2.5C3.125 1.465 3.965 0.625 5 0.625H6.31C6.515 0.625 6.685 0.795 6.685 1C6.685 1.205 6.515 1.375 6.31 1.375H5C4.38 1.375 3.875 1.88 3.875 2.5C3.875 2.705 3.705 2.875 3.5 2.875Z" fill="white"/>
<path d="M9.595 8.875C9.39 8.875 9.22 8.705 9.22 8.5C9.22 8.295 9.39 8.125 9.595 8.125C10.165 8.125 10.625 7.66 10.625 7.095V4C10.625 3.795 10.795 3.625 11 3.625C11.205 3.625 11.375 3.795 11.375 4V7.095C11.375 8.075 10.575 8.875 9.595 8.875Z" fill="white"/>
<path d="M11 4.37499H9.5C8.17 4.37499 7.625 3.82999 7.625 2.49999V0.999994C7.625 0.849994 7.715 0.709994 7.855 0.654994C7.995 0.594994 8.155 0.629994 8.265 0.734994L11.265 3.73499C11.37 3.83999 11.405 4.00499 11.345 4.14499C11.29 4.28499 11.15 4.37499 11 4.37499ZM8.375 1.90499V2.49999C8.375 3.41499 8.585 3.62499 9.5 3.62499H10.095L8.375 1.90499Z" fill="white"/>
</svg>
