<svg width="13" height="12" viewBox="0 0 13 12" fill="none" xmlns="http://www.w3.org/2000/svg">
<path d="M6.5 11.375C3.535 11.375 1.125 8.965 1.125 6C1.125 3.035 3.535 0.625 6.5 0.625C6.705 0.625 6.875 0.795 6.875 1C6.875 1.205 6.705 1.375 6.5 1.375C3.95 1.375 1.875 3.45 1.875 6C1.875 8.55 3.95 10.625 6.5 10.625C9.05 10.625 11.125 8.55 11.125 6C11.125 5.795 11.295 5.625 11.5 5.625C11.705 5.625 11.875 5.795 11.875 6C11.875 8.965 9.465 11.375 6.5 11.375Z" fill="white"/>
<path d="M7 5.875C6.905 5.875 6.81 5.83999 6.735 5.765C6.59 5.62 6.59 5.38 6.735 5.235L10.835 1.135C10.98 0.989995 11.22 0.989995 11.365 1.135C11.51 1.28 11.51 1.52 11.365 1.665L7.265 5.765C7.19 5.83999 7.095 5.875 7 5.875Z" fill="white"/>
<path d="M11.5 3.79C11.295 3.79 11.125 3.62 11.125 3.415V1.375H9.085C8.88 1.375 8.71 1.205 8.71 1C8.71 0.795 8.88 0.625 9.085 0.625H11.5C11.705 0.625 11.875 0.795 11.875 1V3.415C11.875 3.62 11.705 3.79 11.5 3.79Z" fill="white"/>
</svg>
