<svg width="18" height="17" viewBox="0 0 18 17" fill="none" xmlns="http://www.w3.org/2000/svg">
<path d="M0.85 0.349989C0.744151 0.455813 0.679795 0.596108 0.668631 0.745365C0.657467 0.894623 0.700238 1.04293 0.789166 1.16332L0.85 1.23332L4.21167 4.59582C2.57328 5.74543 1.40337 7.4463 0.915833 9.38749C0.878316 9.54733 0.905198 9.71551 0.99067 9.85568C1.07614 9.99586 1.21334 10.0968 1.37261 10.1366C1.53189 10.1765 1.70044 10.152 1.84185 10.0686C1.98326 9.98521 2.08617 9.8495 2.12833 9.69082C2.56151 7.96784 3.62633 6.47054 5.11167 5.49582L6.62 7.00416C6.01749 7.63373 5.68549 8.47422 5.6951 9.34559C5.70471 10.217 6.05517 11.0499 6.67142 11.6661C7.28766 12.2822 8.12069 12.6325 8.99206 12.642C9.86343 12.6514 10.7039 12.3193 11.3333 11.7167L16.2658 16.65C16.3774 16.7618 16.5271 16.8273 16.6849 16.8332C16.8427 16.8391 16.9969 16.7851 17.1165 16.682C17.2361 16.5788 17.3123 16.4342 17.3296 16.2773C17.3469 16.1203 17.3042 15.9626 17.21 15.8358L17.1492 15.7658L12.055 10.6708L12.0558 10.6692L11.0558 9.67082L8.66417 7.27916H8.66583L6.26583 4.88166L6.26667 4.87999L5.3225 3.93832L1.73333 0.349989C1.61615 0.232947 1.45729 0.167206 1.29167 0.167206C1.12604 0.167206 0.967187 0.232947 0.85 0.349989ZM7.50333 7.88749L10.4492 10.8342C10.0562 11.2137 9.52999 11.4236 8.98375 11.4189C8.4375 11.4141 7.91498 11.195 7.52871 10.8088C7.14244 10.4225 6.92334 9.89998 6.91859 9.35374C6.91385 8.8075 7.12384 8.28041 7.50333 7.88749ZM9 3.08332C8.16667 3.08332 7.35833 3.20666 6.5925 3.43749L7.62333 4.46749C9.40629 4.11445 11.2567 4.46006 12.7921 5.43285C14.3274 6.40563 15.4302 7.93121 15.8725 9.69416C15.9157 9.8516 16.0187 9.9859 16.1597 10.0683C16.3006 10.1508 16.4681 10.1748 16.6265 10.1353C16.7849 10.0958 16.9216 9.99583 17.0073 9.85687C17.0929 9.7179 17.1208 9.55093 17.085 9.39165C16.6335 7.58932 15.5926 5.98958 14.1277 4.8466C12.6629 3.70363 10.858 3.083 9 3.08332ZM9.1625 6.00832L12.33 9.17499C12.289 8.34824 11.9421 7.56625 11.3567 6.98101C10.7713 6.39577 9.98926 6.04908 9.1625 6.00832Z" fill="white"/>
</svg>
