<svg width="21" height="20" viewBox="0 0 21 20" fill="none" xmlns="http://www.w3.org/2000/svg">
<path d="M10.5001 15L10.5001 12.5" stroke="#D1CECE" stroke-width="1.25" stroke-linecap="round"/>
<path d="M2.45962 11.0112C2.16544 9.09683 2.01834 8.13965 2.38026 7.29111C2.74218 6.44256 3.54515 5.86199 5.15108 4.70084L6.35095 3.83329C8.3487 2.38885 9.34758 1.66663 10.5001 1.66663C11.6527 1.66663 12.6516 2.38885 14.6493 3.83329L15.8492 4.70084C17.4551 5.86199 18.2581 6.44256 18.62 7.29111C18.9819 8.13965 18.8348 9.09683 18.5406 11.0112L18.2898 12.6436C17.8727 15.3574 17.6642 16.7143 16.691 17.5238C15.7177 18.3333 14.2948 18.3333 11.4491 18.3333H9.55111C6.7054 18.3333 5.28255 18.3333 4.30929 17.5238C3.33604 16.7143 3.12752 15.3574 2.71048 12.6436L2.45962 11.0112Z" stroke="#D1CECE" stroke-width="1.25" stroke-linejoin="round"/>
</svg>
