<svg width="14" height="15" viewBox="0 0 14 15" fill="none" xmlns="http://www.w3.org/2000/svg">
<path d="M0.333328 5H1.99999V0H3.66666L6.51666 5H10.3333V0H12V5H13.6667V6.66667H12V8.33333H13.6667V10H12V15H10.3333L7.47499 10H3.66666V15H1.99999V10H0.333328V8.33333H1.99999V6.66667H0.333328V5ZM3.66666 5H4.60833L3.66666 3.35833V5ZM3.66666 6.66667V8.33333H6.51666L5.56666 6.66667H3.66666ZM10.3333 11.6667V10H9.375L10.3333 11.6667ZM7.46666 6.66667L8.42499 8.33333H10.3333V6.66667H7.46666Z" fill="white"/>
</svg>
