<svg width="26" height="26" viewBox="0 0 26 26" fill="none" xmlns="http://www.w3.org/2000/svg">
<circle cx="13" cy="13" r="12.7903" stroke="white" stroke-width="0.419355"/>
<g clip-path="url(#clip0_54_6009)">
<path fill-rule="evenodd" clip-rule="evenodd" d="M11.4094 19.0848C11.7714 19.4881 12.2362 19.7097 12.7185 19.7097H12.7192C13.2035 19.7097 13.6704 19.4881 14.0332 19.0841C14.2275 18.8696 14.5588 18.8521 14.7733 19.0457C14.9886 19.2393 15.0061 19.5713 14.8125 19.7858C14.2477 20.4128 13.5048 20.7581 12.7192 20.7581H12.7178C11.9343 20.7574 11.1927 20.4121 10.6301 19.7851C10.4365 19.5706 10.454 19.2386 10.6692 19.0457C10.8845 18.8514 11.2158 18.8689 11.4094 19.0848ZM12.7533 5.73117C15.86 5.73117 17.947 8.15085 17.947 10.4105C17.947 11.5728 18.2426 12.0655 18.5565 12.5883C18.8668 13.1041 19.2183 13.6898 19.2183 14.7969C18.9744 17.6255 16.0215 17.8561 12.7533 17.8561C9.48512 17.8561 6.53146 17.6255 6.29032 14.8417C6.28824 13.6898 6.63979 13.1041 6.95012 12.5883L7.05967 12.4039C7.32941 11.9403 7.55958 11.436 7.55958 10.4105C7.55958 8.15085 9.64657 5.73117 12.7533 5.73117ZM12.7533 6.77956C10.3105 6.77956 8.60797 8.69321 8.60797 10.4105C8.60797 11.8635 8.20469 12.5352 7.84824 13.1279C7.56238 13.6039 7.33662 13.9799 7.33662 14.7969C7.45334 16.1151 8.3235 16.8077 12.7533 16.8077C17.1586 16.8077 18.056 16.0843 18.1721 14.7515C18.17 13.9799 17.9442 13.6039 17.6583 13.1279C17.3019 12.5352 16.8986 11.8635 16.8986 10.4105C16.8986 8.69321 15.196 6.77956 12.7533 6.77956Z" fill="white"/>
</g>
<defs>
<clipPath id="clip0_54_6009">
<rect width="16.7742" height="16.7742" fill="white" transform="translate(4.19354 5.03226)"/>
</clipPath>
</defs>
</svg>
