<svg width="21" height="20" viewBox="0 0 21 20" fill="none" xmlns="http://www.w3.org/2000/svg">
<path d="M10.6 11.275C10.5833 11.275 10.5583 11.275 10.5417 11.275C10.5167 11.275 10.4833 11.275 10.4583 11.275C8.56666 11.2167 7.14999 9.74168 7.14999 7.92501C7.14999 6.07501 8.65833 4.56668 10.5083 4.56668C12.3583 4.56668 13.8667 6.07501 13.8667 7.92501C13.8583 9.75001 12.4333 11.2167 10.625 11.275C10.6083 11.275 10.6083 11.275 10.6 11.275ZM10.5 5.80835C9.33333 5.80835 8.39166 6.75835 8.39166 7.91668C8.39166 9.05835 9.28333 9.98335 10.4167 10.025C10.4417 10.0167 10.525 10.0167 10.6083 10.025C11.725 9.96668 12.6 9.05001 12.6083 7.91668C12.6083 6.75835 11.6667 5.80835 10.5 5.80835Z" fill="#808080"/>
<path d="M10.5 18.9583C8.25833 18.9583 6.11666 18.125 4.45833 16.6083C4.30833 16.475 4.24166 16.275 4.25833 16.0833C4.36666 15.0917 4.98333 14.1667 6.00833 13.4833C8.49166 11.8333 12.5167 11.8333 14.9917 13.4833C16.0167 14.175 16.6333 15.0917 16.7417 16.0833C16.7667 16.2833 16.6917 16.475 16.5417 16.6083C14.8833 18.125 12.7417 18.9583 10.5 18.9583ZM5.56666 15.9167C6.95 17.075 8.69166 17.7083 10.5 17.7083C12.3083 17.7083 14.05 17.075 15.4333 15.9167C15.2833 15.4083 14.8833 14.9167 14.2917 14.5167C12.2417 13.15 8.76666 13.15 6.7 14.5167C6.10833 14.9167 5.71666 15.4083 5.56666 15.9167Z" fill="#808080"/>
<path d="M10.5 18.9583C5.55834 18.9583 1.54167 14.9417 1.54167 9.99999C1.54167 5.05832 5.55834 1.04166 10.5 1.04166C15.4417 1.04166 19.4583 5.05832 19.4583 9.99999C19.4583 14.9417 15.4417 18.9583 10.5 18.9583ZM10.5 2.29166C6.25001 2.29166 2.79167 5.74999 2.79167 9.99999C2.79167 14.25 6.25001 17.7083 10.5 17.7083C14.75 17.7083 18.2083 14.25 18.2083 9.99999C18.2083 5.74999 14.75 2.29166 10.5 2.29166Z" fill="#808080"/>
</svg>
