<svg width="20" height="20" viewBox="0 0 20 20" fill="none" xmlns="http://www.w3.org/2000/svg">
<path d="M13.9167 16.4417H6.08334C5.46667 16.4417 4.84167 16 4.63334 15.425L1.18334 5.76669C0.758335 4.55002 1.06667 3.99169 1.4 3.74169C1.73334 3.49169 2.35834 3.34169 3.40834 4.09169L6.65833 6.41669C6.75834 6.47502 6.85 6.50002 6.91667 6.48336C6.99167 6.45836 7.05 6.39169 7.09167 6.27502L8.55834 2.36669C9 1.20002 9.65 1.02502 10 1.02502C10.35 1.02502 11 1.20002 11.4417 2.36669L12.9083 6.27502C12.95 6.38336 13.0083 6.45836 13.0833 6.48336C13.1583 6.50836 13.25 6.48336 13.3417 6.40836L16.3917 4.23336C17.5083 3.43336 18.1583 3.59169 18.5167 3.85002C18.8667 4.11669 19.1917 4.70836 18.7333 6.00002L15.3667 15.425C15.1583 16 14.5333 16.4417 13.9167 16.4417ZM2.23334 4.84169C2.25 4.95836 2.28334 5.12502 2.36667 5.34169L5.81667 15C5.85 15.0834 6 15.1917 6.08334 15.1917H13.9167C14.0083 15.1917 14.1583 15.0834 14.1833 15L17.55 5.58336C17.6667 5.26669 17.7 5.05002 17.7083 4.92502C17.5833 4.96669 17.3917 5.05836 17.1167 5.25836L14.0667 7.43336C13.65 7.72502 13.1583 7.81669 12.7167 7.68336C12.275 7.55002 11.9167 7.20002 11.7333 6.72502L10.2667 2.81669C10.1583 2.52502 10.0583 2.38336 10 2.31669C9.94167 2.38336 9.84167 2.52502 9.73334 2.80836L8.26667 6.71669C8.09167 7.19169 7.73334 7.54169 7.28333 7.67502C6.84167 7.80836 6.34167 7.71669 5.93333 7.42502L2.68334 5.10002C2.49167 4.96669 2.34167 4.88336 2.23334 4.84169Z" fill="#D1CECE"/>
<path d="M14.5833 18.9584H5.41666C5.075 18.9584 4.79166 18.675 4.79166 18.3334C4.79166 17.9917 5.075 17.7084 5.41666 17.7084H14.5833C14.925 17.7084 15.2083 17.9917 15.2083 18.3334C15.2083 18.675 14.925 18.9584 14.5833 18.9584Z" fill="#D1CECE"/>
<path d="M12.0833 12.2916H7.91666C7.575 12.2916 7.29166 12.0083 7.29166 11.6666C7.29166 11.325 7.575 11.0416 7.91666 11.0416H12.0833C12.425 11.0416 12.7083 11.325 12.7083 11.6666C12.7083 12.0083 12.425 12.2916 12.0833 12.2916Z" fill="#D1CECE"/>
</svg>
