<svg width="21" height="20" viewBox="0 0 21 20" fill="none" xmlns="http://www.w3.org/2000/svg">
<path d="M10.5 18.9666C9.59167 18.9666 8.69167 18.6999 7.98333 18.1749L4.4 15.5C3.45 14.7916 2.70833 13.3083 2.70833 12.1333V5.93328C2.70833 4.64995 3.65 3.28328 4.85833 2.83328L9.01667 1.27495C9.84167 0.966618 11.1417 0.966618 11.9667 1.27495L16.125 2.83328C17.3333 3.28328 18.275 4.64995 18.275 5.93328V12.125C18.275 13.3083 17.5333 14.7833 16.5833 15.4916L13 18.1666C12.3083 18.6999 11.4083 18.9666 10.5 18.9666ZM9.45833 2.44995L5.3 4.00828C4.59167 4.27495 3.96667 5.17495 3.96667 5.94162V12.1333C3.96667 12.925 4.525 14.0333 5.15 14.5L8.73333 17.175C9.69167 17.8916 11.3083 17.8916 12.275 17.175L15.8583 14.5C16.4917 14.025 17.0417 12.925 17.0417 12.1333V5.93328C17.0417 5.17495 16.4167 4.27495 15.7083 3.99995L11.55 2.44162C10.9833 2.24162 10.0167 2.24162 9.45833 2.44995Z" fill="#D1CECE"/>
<path d="M9.38333 11.8583C9.225 11.8583 9.06667 11.8 8.94167 11.675L7.6 10.3333C7.35833 10.0917 7.35833 9.69168 7.6 9.45002C7.84167 9.20835 8.24167 9.20835 8.48333 9.45002L9.38333 10.35L12.525 7.20835C12.7667 6.96668 13.1667 6.96668 13.4083 7.20835C13.65 7.45002 13.65 7.85002 13.4083 8.09168L9.825 11.675C9.7 11.8 9.54167 11.8583 9.38333 11.8583Z" fill="#D1CECE"/>
</svg>
