<svg width="26" height="26" viewBox="0 0 26 26" fill="none" xmlns="http://www.w3.org/2000/svg">
<rect width="26" height="26" rx="13" fill="#F1EFEF"/>
<path d="M6.5 11.9167V15.5278C6.5 17.5705 6.5 18.5919 7.1346 19.2265C7.7692 19.8611 8.79058 19.8611 10.8333 19.8611H15.1667C17.2094 19.8611 18.2308 19.8611 18.8654 19.2265C19.5 18.5919 19.5 17.5705 19.5 15.5278V11.9167" stroke="#808080" stroke-width="1.3" stroke-linecap="round"/>
<path d="M15.1667 16.6111C14.6726 17.0497 13.886 17.3333 13 17.3333C12.114 17.3333 11.3274 17.0497 10.8333 16.6111" stroke="#808080" stroke-width="1.3" stroke-linecap="round"/>
<path d="M6.43643 8.11423L5.81769 7.91507H5.81769L6.43643 8.11423ZM5.94263 9.6484L6.56137 9.84755L5.94263 9.6484ZM19.5636 8.11423L18.9448 8.31338V8.31338L19.5636 8.11423ZM20.0574 9.6484L20.6761 9.44925L20.6761 9.44925L20.0574 9.6484ZM11.3845 11.3156C11.1322 11.0602 10.7207 11.0575 10.4652 11.3097C10.2098 11.562 10.2071 11.9735 10.4594 12.229L11.3845 11.3156ZM15.5407 11.3152C15.2886 11.0597 14.877 11.057 14.6215 11.3091C14.366 11.5613 14.3633 11.9729 14.6154 12.2284L15.5407 11.3152ZM6.04884 11.245L6.57578 10.8644H6.57578L6.04884 11.245ZM12.2907 10.6353C12.3808 10.2878 12.1721 9.93309 11.8246 9.84301C11.4771 9.75294 11.1224 9.96163 11.0323 10.3091L12.2907 10.6353ZM16.4464 10.6353C16.5365 10.2878 16.3278 9.93309 15.9803 9.84301C15.6328 9.75294 15.278 9.96163 15.188 10.3091L16.4464 10.6353ZM19.9511 11.245L19.4242 10.8644V10.8644L19.9511 11.245ZM20.2031 10.6215L19.5608 10.5213L19.5608 10.5213L20.2031 10.6215ZM5.79691 10.6215L5.15468 10.7217L5.79691 10.6215ZM7.26199 6.41154L6.87318 5.89064L6.87318 5.89064L7.26199 6.41154ZM5.81769 7.91507L5.32389 9.44925L6.56137 9.84755L7.05517 8.31338L5.81769 7.91507ZM18.9448 8.31338L19.4386 9.84755L20.6761 9.44925L20.1823 7.91507L18.9448 8.31338ZM9.08282 6.78889H16.9172V5.48889H9.08282V6.78889ZM12.9995 11.9889C12.3659 11.9889 11.7949 11.7313 11.3845 11.3156L10.4594 12.229C11.105 12.8829 12.0055 13.2889 12.9995 13.2889V11.9889ZM17.1562 11.9889C16.5223 11.9889 15.9512 11.7311 15.5407 11.3152L14.6154 12.2284C15.2611 12.8826 16.1619 13.2889 17.1562 13.2889V11.9889ZM8.84382 11.9889C7.98533 11.9889 7.05044 11.5216 6.57578 10.8644L5.52191 11.6256C6.25415 12.6394 7.59092 13.2889 8.84382 13.2889V11.9889ZM11.0323 10.3091C10.7825 11.2727 9.8989 11.9889 8.84382 11.9889V13.2889C10.5 13.2889 11.8945 12.1637 12.2907 10.6353L11.0323 10.3091ZM15.188 10.3091C14.9382 11.2727 14.0546 11.9889 12.9995 11.9889V13.2889C14.6557 13.2889 16.0502 12.1637 16.4464 10.6353L15.188 10.3091ZM19.4242 10.8644C18.9495 11.5216 18.0147 11.9889 17.1562 11.9889V13.2889C18.4091 13.2889 19.7458 12.6394 20.4781 11.6256L19.4242 10.8644ZM19.4386 9.84755C19.574 10.2683 19.5891 10.3403 19.5608 10.5213L20.8453 10.7217C20.9264 10.2018 20.8079 9.85867 20.6761 9.44925L19.4386 9.84755ZM20.4781 11.6256C20.5383 11.5422 20.6284 11.4211 20.6999 11.2604C20.7723 11.0976 20.8137 10.9245 20.8453 10.7217L19.5608 10.5213C19.5378 10.6689 19.519 10.7166 19.512 10.7323C19.504 10.7503 19.4954 10.7658 19.4242 10.8644L20.4781 11.6256ZM20.1823 7.91507C20.0334 7.45234 19.9062 7.05428 19.7656 6.74127C19.6188 6.41435 19.4313 6.11796 19.1268 5.89064L18.3492 6.93243C18.4099 6.97776 18.4819 7.05604 18.5798 7.27396C18.6839 7.50579 18.7869 7.82275 18.9448 8.31338L20.1823 7.91507ZM16.9172 6.78889C17.4178 6.78889 17.7368 6.78994 17.9782 6.81847C18.2015 6.84487 18.2904 6.88851 18.3492 6.93243L19.1268 5.89064C18.8204 5.66191 18.484 5.56923 18.1308 5.52746C17.7956 5.48783 17.3869 5.48889 16.9172 5.48889V6.78889ZM5.32389 9.44925C5.19211 9.85867 5.07354 10.2018 5.15468 10.7217L6.43914 10.5213C6.4109 10.3403 6.42594 10.2683 6.56137 9.84755L5.32389 9.44925ZM6.57578 10.8644C6.50454 10.7658 6.49601 10.7503 6.48802 10.7323C6.48101 10.7166 6.46218 10.6689 6.43914 10.5213L5.15468 10.7217C5.18633 10.9245 5.22772 11.0976 5.30013 11.2604C5.37156 11.4211 5.46165 11.5422 5.52191 11.6256L6.57578 10.8644ZM7.05517 8.31338C7.21309 7.82275 7.31609 7.50579 7.42023 7.27396C7.51812 7.05604 7.59007 6.97776 7.6508 6.93243L6.87318 5.89064C6.56864 6.11796 6.38123 6.41435 6.23438 6.74127C6.09377 7.05428 5.96663 7.45234 5.81769 7.91507L7.05517 8.31338ZM9.08282 5.48889C8.61312 5.48889 8.20435 5.48783 7.86917 5.52746C7.51596 5.56923 7.17962 5.66191 6.87318 5.89064L7.6508 6.93243C7.70963 6.88851 7.79852 6.84487 8.02181 6.81847C8.26314 6.78994 8.58214 6.78889 9.08282 6.78889V5.48889Z" fill="#808080"/>
</svg>
