<svg width="20" height="20" viewBox="0 0 20 20" fill="none" xmlns="http://www.w3.org/2000/svg">
<path d="M9.54992 12.0671C7.91658 12.0671 6.58325 10.7338 6.58325 9.10045C6.58325 7.46712 7.91658 6.13379 9.54992 6.13379C11.1832 6.13379 12.5166 7.46712 12.5166 9.10045C12.5166 10.7338 11.1832 12.0671 9.54992 12.0671ZM9.54992 7.39213C8.60825 7.39213 7.83325 8.1588 7.83325 9.1088C7.83325 10.0588 8.59992 10.8255 9.54992 10.8255C10.4999 10.8255 11.2666 10.0588 11.2666 9.1088C11.2666 8.1588 10.4999 7.39213 9.54992 7.39213Z" fill="#81A064"/>
<path d="M13.875 17.4586C13.5334 17.4586 13.25 17.1753 13.25 16.8336C13.25 15.2336 11.5917 13.9336 9.55002 13.9336C7.50835 13.9336 5.85002 15.2336 5.85002 16.8336C5.85002 17.1753 5.56669 17.4586 5.22502 17.4586C4.88335 17.4586 4.60002 17.1753 4.60002 16.8336C4.60002 14.5503 6.81669 12.6836 9.55002 12.6836C12.2834 12.6836 14.5 14.542 14.5 16.8336C14.5 17.1753 14.2167 17.4586 13.875 17.4586Z" fill="#81A064"/>
<path d="M9.58334 18.9583C4.87501 18.9583 1.04167 15.125 1.04167 10.4167C1.04167 5.70833 4.87501 1.875 9.58334 1.875C10.7417 1.875 11.8583 2.09999 12.9083 2.54166C13.2083 2.66666 13.3583 2.99998 13.2583 3.30831C13.1667 3.58331 13.125 3.875 13.125 4.16667C13.125 4.65833 13.2583 5.14165 13.5167 5.55832C13.65 5.79165 13.825 5.99998 14.025 6.17498C14.75 6.83331 15.825 7.04169 16.6667 6.74169C16.975 6.62502 17.325 6.78334 17.45 7.09168C17.9 8.15001 18.125 9.27501 18.125 10.425C18.125 15.125 14.2917 18.9583 9.58334 18.9583ZM9.58334 3.125C5.56667 3.125 2.29167 6.39167 2.29167 10.4167C2.29167 14.4417 5.56667 17.7083 9.58334 17.7083C13.6 17.7083 16.875 14.4417 16.875 10.4167C16.875 9.61667 16.7417 8.82499 16.4917 8.06666C15.3417 8.26666 14.0833 7.90835 13.2 7.10002C12.9083 6.85002 12.65 6.54167 12.45 6.2C12.0833 5.6 11.8833 4.89167 11.8833 4.16667C11.8833 3.94167 11.9 3.72502 11.9417 3.50835C11.1833 3.25002 10.3917 3.125 9.58334 3.125Z" fill="#81A064"/>
<path d="M15.8333 8.12467C14.85 8.12467 13.9167 7.75802 13.1917 7.09969C12.9 6.84969 12.6417 6.54134 12.4417 6.19968C12.075 5.59968 11.875 4.89134 11.875 4.16634C11.875 3.74134 11.9417 3.32468 12.075 2.92468C12.2583 2.35802 12.575 1.83301 13 1.40801C13.75 0.641343 14.7583 0.208008 15.8417 0.208008C16.975 0.208008 18.05 0.691355 18.7833 1.52469C19.4333 2.24969 19.8 3.18301 19.8 4.16634C19.8 4.48301 19.7583 4.79967 19.675 5.09967C19.5917 5.47467 19.4333 5.86635 19.2167 6.20802C18.7333 7.02468 17.9667 7.63301 17.0667 7.91634C16.6917 8.05801 16.275 8.12467 15.8333 8.12467ZM15.8333 1.45801C15.0917 1.45801 14.4 1.74966 13.8917 2.27466C13.6 2.57466 13.3917 2.91632 13.2667 3.30798C13.175 3.58298 13.1333 3.87467 13.1333 4.16634C13.1333 4.65801 13.2667 5.14133 13.525 5.55799C13.6583 5.79133 13.8333 5.99965 14.0333 6.17465C14.7583 6.83299 15.8333 7.04136 16.675 6.74136C17.3083 6.54136 17.825 6.12467 18.1583 5.56633C18.3083 5.32467 18.4083 5.06636 18.4667 4.80802C18.525 4.59136 18.55 4.38301 18.55 4.16634C18.55 3.49967 18.3 2.85802 17.85 2.35802C17.3417 1.78302 16.6083 1.45801 15.8333 1.45801Z" fill="#81A064"/>
<path d="M17.075 4.77539H14.5833C14.2417 4.77539 13.9583 4.49206 13.9583 4.15039C13.9583 3.80872 14.2417 3.52539 14.5833 3.52539H17.075C17.4167 3.52539 17.7 3.80872 17.7 4.15039C17.7 4.49206 17.425 4.77539 17.075 4.77539Z" fill="#81A064"/>
<path d="M15.8333 6.04928C15.4917 6.04928 15.2083 5.76594 15.2083 5.42428V2.93262C15.2083 2.59095 15.4917 2.30762 15.8333 2.30762C16.175 2.30762 16.4583 2.59095 16.4583 2.93262V5.42428C16.4583 5.77428 16.175 6.04928 15.8333 6.04928Z" fill="#81A064"/>
</svg>
